<svg xmlns="http://www.w3.org/2000/svg" width="81.889" height="79.86" viewBox="0 0 81.889 79.86">
  <g id="Group_35570" data-name="Group 35570" transform="translate(-778.297 -400.318)">
    <path id="Path_46863" data-name="Path 46863" d="M741.078,256.527h0c1.046.929,0,3.37.582,4.532.232.7,1.392.466,1.977.813a16.351,16.351,0,0,1,5.345,4.765c3.02,4.184,4.416,9.064,5.228,14.18a6.562,6.562,0,0,1,.349,2.093c.117.463.117.929-.579.58a49.462,49.462,0,0,0-11.508-2.324,29.216,29.216,0,0,0-9.529.813,43.537,43.537,0,0,0-5.577,1.393c-.817.349-.93,0-.93-.58.233-1.627.464-3.139.812-4.648a28.086,28.086,0,0,1,5.346-12.2c1.393-1.742,2.908-3.488,5.23-4.185,1.745-.7,1.745-.7,1.858-2.673,0-.93-.344-1.859.351-2.556Z" transform="translate(79.093 143.791)" fill="#88b14b" fill-rule="evenodd"/>
    <path id="Path_46864" data-name="Path 46864" d="M761.681,281.276h0a8.179,8.179,0,0,1-1.626-.348,11.1,11.1,0,0,0-6.159.348c-1.281.349-1.4.349-1.514-.93a38.016,38.016,0,0,0-2.555-10.113,25.978,25.978,0,0,0-6.044-8.949c-.234-.232-.7-.349-.812-.813.348-.232.579-.116.927-.116a23.75,23.75,0,0,1,17.551,18.71c0,.232.119.348.231.582v1.628Z" transform="translate(82.662 144.611)" fill="#88b14b" fill-rule="evenodd"/>
    <path id="Subtraction_1" data-name="Subtraction 1" d="M20834.811,22371.889h-.008c-1.914,0-3.215-.439-3.971-1.342-.824-.979-1.043-2.51-.666-4.684a2.156,2.156,0,0,0-.311-1.824,2.978,2.978,0,0,0-2.363-.73c-5.176.055-10.494.084-15.8.084s-10.631-.029-15.807-.084a2.923,2.923,0,0,0-2.215.7,3.742,3.742,0,0,0-.576,2.783c.244,1.871.035,3.109-.656,3.893-.664.758-1.771,1.111-3.484,1.111-.125,0-.252,0-.385-.008-1.758-.047-3.2-.055-4.361-.059l-.025,0c-3.41-.02-5.123-.029-5.936-.857-.779-.793-.762-2.314-.725-5.344.018-1.227.035-2.748,0-4.547,0-4.8,0-9.764.117-14.762,0-1.916-.391-3.191-2.3-3.191a5.41,5.41,0,0,0-.725.053c-.172.014-.332.021-.477.021a2.416,2.416,0,0,1-2.328-1.166,6.5,6.5,0,0,1-.564-2.8c0-2.34,1.318-2.832,2.422-2.832a4.857,4.857,0,0,1,1.178.16,11.3,11.3,0,0,0,2.348.27c4.174,0,6.123-2.941,7.764-7.361,1.371-3.707,2.383-5.793,4.111-6.9,1.648-1.057,3.865-1.236,8.209-1.236h14.648c1.877,0,3.873.014,5.477.023,1.666.014,3.625.025,5.531.025,2.078,0,3.875-.016,5.49-.049q.208-.006.41-.006a9.375,9.375,0,0,1,5.311,1.391,8.888,8.888,0,0,1,3.348,4.428,18.054,18.054,0,0,0,.865,2.023,17.341,17.341,0,0,1,.875,2.041c.885,3.732,2.934,5.469,6.447,5.469a13.093,13.093,0,0,0,1.693-.117c.125-.014.252-.031.381-.049l.117-.018a12.455,12.455,0,0,1,1.59-.143c1.783,0,2.609.924,2.674,2.994a4.147,4.147,0,0,1-.869,3.027,3.619,3.619,0,0,1-2.7.818c-.156,0-.324-.006-.494-.012-.135-.012-.266-.018-.389-.018a1.8,1.8,0,0,0-1.344.449,3.387,3.387,0,0,0-.486,2.418c0,.168.006.348.006.52l-.006.453,0,.016c-.107,6.705-.217,13.641.008,20.453.061,1.73-.223,2.859-.889,3.547a3.731,3.731,0,0,1-2.8.9c-.217,0-.461-.01-.723-.027a17.015,17.015,0,0,0-4.879,0A16.647,16.647,0,0,1,20834.811,22371.889Zm-8.48-28.1a1.032,1.032,0,0,0-1.045,1.043v3.488a1.016,1.016,0,0,0,1.045.926h13.133a1.062,1.062,0,0,0,1.164-.926v-3.488a1.071,1.071,0,0,0-1.164-1.043Zm-41.842,0a1.044,1.044,0,0,0-1.045,1.043v3.488a1.03,1.03,0,0,0,1.045.926h13.133a1.138,1.138,0,0,0,1.162-.926v-3.488a1.136,1.136,0,0,0-1.162-1.043Zm43.5-3.658c3.139,0,5.826.018,8.215.053,2.029,0,3.121-.312,3.541-1.012.4-.67.193-1.746-.633-3.289-1.383-2.768-2.541-5.662-3.662-8.461l-.055-.141a6.84,6.84,0,0,0-6.924-4.537q-.2,0-.4.006c-2.492.035-5.2.053-8.283.053-2.488,0-5.025-.012-7.48-.023l-.844,0c-2.42-.014-5.43-.027-8.266-.027-.461,0-.936.006-1.41.006-1.137,0-2.162-.01-2.984-.018h-.076l-.242,0c-.852-.008-1.514-.01-2.086-.01-3.348,0-5.049.166-6.277,1.158-1.254,1.014-2.051,2.9-3.5,6.328-.59,1.4-1.324,3.141-2.256,5.2-.062.127-.127.287-.184.428l-.029.074c-.047.113-.09.221-.135.313-.727,1.35-.9,2.316-.516,2.957.408.68,1.42,1,3.188,1h24.992c2.8,0,5.752-.014,8.125-.027C20822.273,22340.141,20825.168,22340.127,20827.992,22340.127Z" transform="translate(-19992.445 -21892.211)" fill="#124c8a" stroke="rgba(0,0,0,0)" stroke-miterlimit="10" stroke-width="1"/>
    <path id="Path_46866" data-name="Path 46866" d="M717.068,281.276a8.148,8.148,0,0,0,1.624-.348,11.113,11.113,0,0,1,6.163.348c1.277.349,1.277.349,1.509-.93a37.935,37.935,0,0,1,2.558-10.113,25.941,25.941,0,0,1,6.043-8.949c.232-.232.7-.349.7-.813-.232-.232-.58-.116-.812-.116a23.744,23.744,0,0,0-17.549,18.71c0,.232-.117.348-.232.582v1.628Z" transform="translate(77.07 144.611)" fill="#88b14b" fill-rule="evenodd"/>
  </g>
</svg>
