<svg xmlns="http://www.w3.org/2000/svg" width="85.084" height="71.4" viewBox="0 0 85.084 71.4">
  <g id="Group_36251" data-name="Group 36251" transform="translate(-1608.422 -1084.6)">
    <path id="Subtraction_4" data-name="Subtraction 4" d="M20947.316,23065.8a1.81,1.81,0,0,1-1.3-.5,2.011,2.011,0,0,1-.584-1.459,1.679,1.679,0,0,1,.584-1.223l10.176-10.176-3.24-3.242a35.952,35.952,0,0,1-5.471,4.174,28.62,28.62,0,0,1-6.721,3.092,21.031,21.031,0,0,1-5.736.822,18.87,18.87,0,0,1-7.723-1.65,23.8,23.8,0,0,1-7-4.875.144.144,0,0,1-.107-.053l0,0-.006-.006a.121.121,0,0,0-.1-.053,3.829,3.829,0,0,1,0-5.359l1.563-1.57-2.24-2.234-2.453,2.461a3.781,3.781,0,0,0-1.1,2.961v.031c.008.154,0,.229-.018.25a1.642,1.642,0,0,1-.139,1.354,1.8,1.8,0,0,1-1.2.875,1.456,1.456,0,0,1-.4.051,2.15,2.15,0,0,1-1.943-1.383,7.525,7.525,0,0,1,2.117-6.824l23.15-23.26a1.944,1.944,0,0,1,1.383-.59,1.686,1.686,0,0,1,1.3.59,1.825,1.825,0,0,1,.115,2.686l-5.482,5.477,2.24,2.24,4.811-4.816a3.929,3.929,0,0,1,2.682-1.117h8.607l20.354-20.348a3.718,3.718,0,0,1,2.633-1.123,4.03,4.03,0,0,1,2.844,1.234l6.037,5.926.006-.01.012-.02a6.332,6.332,0,0,1,.77-.977,6.207,6.207,0,0,1,4.248-1.68,6.041,6.041,0,0,1,4.25,1.68,6.144,6.144,0,0,1,1.789,4.365,5.834,5.834,0,0,1-1.789,4.248,5.647,5.647,0,0,1-4.25,1.789,6.059,6.059,0,0,1-4.248-1.789,3.474,3.474,0,0,1-.787-1.123,6.215,6.215,0,0,1-.758-1.117l-.006-.012,0-.01-.006-.008c-.455-.756-.928-1.539-1.4-1.539a.193.193,0,0,0-.057.006l-12.186,1.117-13.314,17.777,3.473,6.488a3.6,3.6,0,0,1-.334,3.914,36.651,36.651,0,0,1-4.586,5.365l3.133,3.133,10.17-10.172a1.68,1.68,0,0,1,1.3-.59,1.951,1.951,0,0,1,1.383.59,1.883,1.883,0,0,1,0,2.564l-23.039,23.15A2.107,2.107,0,0,1,20947.316,23065.8Zm-9.68-30.914-8.277,8.16a12.031,12.031,0,0,0,16.215-.221Zm9.5-9.4-7.826,7.824,7.941,8.053c3.463-2.84,5.193-5.875,5.008-8.775C20952.092,23029.939,20950.318,23027.482,20947.137,23025.492Zm-15.316,2.131-9.506,9.387,2.234,2.234,9.506-9.389Z" transform="translate(-19303 -21915.898)" fill="#124c8a" stroke="rgba(0,0,0,0)" stroke-miterlimit="10" stroke-width="1"/>
    <path id="Path_46906" data-name="Path 46906" d="M530.884,749.743h0l-.67,5.591,5.143,2.35c.223.111.45.559.223.781,0,.225-.223.336-.447.336l-5.477,1.121-.672,5.59a.626.626,0,0,1-.674.558,1.6,1.6,0,0,1-.447-.335l-2.681-4.919-5.594,1.117a.768.768,0,0,1-.67-.446c0-.225,0-.448.117-.559l3.91-4.138L521.826,755l.894-.894,1.453,2.46a.683.683,0,0,1-.109.783l-2.908,3.019,4.137-.784a.5.5,0,0,1,.67.338l2.123,3.686.452-4.249a.739.739,0,0,1,.446-.558l4.249-.781-3.913-1.789c-.225,0-.336-.339-.336-.563l.559-4.245-2.907,3.129a.527.527,0,0,1-.673.11l-2.569-1.227.894-.783,1.675.783,3.916-4.138a.688.688,0,0,1,.781-.112.723.723,0,0,1,.223.558Z" transform="translate(1139.529 380.539)" fill="#88b14b" fill-rule="evenodd"/>
    <path id="Path_46907" data-name="Path 46907" d="M554.874,772.172H479.059v-3.691h75.815Z" transform="translate(1132.76 383.828)" fill="#88b14b" fill-rule="evenodd"/>
    <path id="Path_46911" data-name="Path 46911" d="M543.829,724.148h0a3.565,3.565,0,0,0,2.573-1.117,3.848,3.848,0,0,0,1.117-2.57,3.82,3.82,0,0,0-3.69-3.689A3.524,3.524,0,0,0,541.255,718a3.389,3.389,0,0,0,0,5.03,3.4,3.4,0,0,0,2.574,1.117Z" transform="translate(1143.135 375.045)" fill="#124c8a" fill-rule="evenodd"/>
  </g>
</svg>
