<svg id="Component_7_7" data-name="Component 7 – 7" xmlns="http://www.w3.org/2000/svg" width="9.164" height="9.032" viewBox="0 0 9.164 9.032">
  <path id="Icon_ionic-ios-arrow-forward" data-name="Icon ionic-ios-arrow-forward" d="M14.854,10.711,11.436,7.3a.643.643,0,0,1,0-.912.651.651,0,0,1,.914,0l3.872,3.87a.644.644,0,0,1,.019.89l-3.888,3.9a.646.646,0,0,1-.914-.912Z" transform="translate(-11.246 -6.196)" fill="#050505"/>
  <path id="Icon_ionic-ios-arrow-forward-2" data-name="Icon ionic-ios-arrow-forward" d="M14.854,10.711,11.436,7.3a.643.643,0,0,1,0-.912.651.651,0,0,1,.914,0l3.872,3.87a.644.644,0,0,1,.019.89l-3.888,3.9a.646.646,0,0,1-.914-.912Z" transform="translate(-7.246 -6.196)" fill="#050505"/>
</svg>
