<svg xmlns="http://www.w3.org/2000/svg" width="74.713" height="81.241" viewBox="0 0 74.713 81.241">
  <g id="Group_35571" data-name="Group 35571" transform="translate(-1103.787 -689.939)">
    <path id="Path_46750" data-name="Path 46750" d="M486.236,301.12h0v-2.585h-6.8c3.559-3.344,7.227-6.581,10.786-9.816V270.6a2.164,2.164,0,0,1,2.158-2.159h8.2a2.163,2.163,0,0,1,2.154,2.159V277.4c3.127-2.911,6.364-5.824,9.6-8.737,1.185-1.077,1.832-1.077,3.017,0,1.079.973,3.992,2.051,3.56,3.668l-.862,3.451a39.059,39.059,0,0,0-.755,9.273,15.943,15.943,0,0,0,3.668,8.844A14.591,14.591,0,0,0,527,298.212c4.96,1.831,11.648,1.293,16.823,1.293v31.275c0,1.4-.431,1.724-1.725,1.724-5.6-.108-11.107-.108-16.714,0-1.292,0-1.619-.432-1.619-1.724.107-4.746.107-9.6,0-14.452,0-2.7-1.508-4.206-4.206-4.206-2.586-.107-5.068-.107-7.656-.107-4.423,0-5.823,1.4-5.823,6.039v12.94c0,1.077-.217,1.4-1.4,1.4-5.5,0-11-.108-16.5,0-1.4.108-1.834-.324-1.943-1.293V301.12Z" transform="translate(624.346 438.676)" fill="#124c8a" fill-rule="evenodd"/>
    <path id="Path_46751" data-name="Path 46751" d="M537.792,282.3c-2.266,5.176-2.481,5.607-5.5,7.549.327-2.806,1.3-5.391.434-8.088-.323-1.293-.65-2.7-1.081-3.989-1.293-3.129-2.048-3.237-4.1-.432-3.987,5.392-3.667,13.48.538,19.3a3.973,3.973,0,0,1,1.4,2.478c-4.53-.107-8.518-1.293-11.539-4.744-4.1-4.96-3.559-10.568-2.481-16.606,1.512.861,1.834,2.373,2.588,3.344,1.293,1.4,2.159,1.4,2.914-.432a6.526,6.526,0,0,0,0-5.825c-1.4-3.126-.868-6.252.323-9.165a32.229,32.229,0,0,1,7.442-11.432c.43-.538.861-1.293,1.616-1.077s.431,1.077.431,1.726c.215,2.587,1.62,4.529,2.912,6.686,2.586,4.1,4.637,8.3,2.7,13.37,2.263-1.616,2.8-2.586,4.313-7.439,3.668,4.424,5.391,8.952,3.452,14.665,2.155-1.185,2.8-3.019,3.663-4.852,5.5,9.165-2.156,21.244-14.341,22,5.282-4.746,6.144-10.244,4.312-17.039Z" transform="translate(628.865 436.791)" fill="#88b14b" fill-rule="evenodd"/>
  </g>
</svg>
