<svg xmlns="http://www.w3.org/2000/svg" width="89.157" height="76.473" viewBox="0 0 89.157 76.473">
  <g id="Group_36250" data-name="Group 36250" transform="translate(-424 -742.244)">
    <path id="Path_46851" data-name="Path 46851" d="M95.8,55.259h0c-4.508,5.227-10.569,10.333-13.893,13.3-2.137,1.9-6.412,6.652-7.6,6.652s-5.11-4.156-7.483-6.295l-.237-.357a134.546,134.546,0,0,1-14.13-13.3h13.42c.355,0,.593-.237.83-.593l1.067-2.256,1.661,9.145a.911.911,0,0,0,.954.712,1.031,1.031,0,0,0,.948-.712L72.765,49.68l1.306,7.838a.769.769,0,0,0,.717.712,1.245,1.245,0,0,0,1.067-.593l1.3-3.208,1.429,4.512c.237.355.473.593.83.593a.893.893,0,0,0,.83-.593l2.021-3.682Z" transform="translate(403.957 714.178)" fill="#88b14b" fill-rule="evenodd"/>
    <path id="Path_46852" data-name="Path 46852" d="M102.683,47.6h0c-.475,2.495-2.021,5.109-4.275,7.956H82.968a1.073,1.073,0,0,0-.831.358l-1.3,2.493L79.29,53.777a1.023,1.023,0,0,0-.834-.712,1.058,1.058,0,0,0-.949.594L76.439,56.27,74.774,45.821a1.013,1.013,0,0,0-.831-.713h-.118a.793.793,0,0,0-.83.713L71.452,57.934l-1.309-6.413c-.114-.477-.355-.713-.712-.713a.8.8,0,0,0-.948.476l-2.021,4.274H52.215C49.958,52.71,48.3,49.976,47.937,47.6c-.83-4.512-.114-8.073,2.021-10.687,2.016-2.613,5.579-4.157,10.566-4.631H61.83a15.505,15.505,0,0,1,11.4,4.868,2.72,2.72,0,0,0,2.018.952,3.04,3.04,0,0,0,2.259-.952,15.138,15.138,0,0,1,11.4-4.868h1.068c5.106.475,8.55,2.019,10.8,4.631,2.139,2.614,2.732,6.174,1.9,10.687Z" transform="translate(402.779 709.961)" fill="#88b14b" fill-rule="evenodd"/>
    <path id="Path_46853" data-name="Path 46853" d="M115.429,76.316c-.6-1.542-3.206-2.492-5.94-2.254a15.341,15.341,0,0,0-2.255.473C103.672,75.6,85.978,81.66,85.859,81.9h-.475l.239.359c2.016,1.66,3.083,3.441,2.61,4.868-.594,2.136-3.561,3.443-8.314,3.92a65.691,65.691,0,0,1-15.791-1.19h2.259c4.507,0,8.665,0,11.99-.237,5.106-.357,7.483-1.543,7.839-3.444.119-1.307-.593-2.374-2.377-3.2-1.9-.952-5.818-1.545-9.737-2.139-2.609-.476-5.1-.713-6.889-1.188-6.173-1.661-12.466-3.326-19.829-2.731a32.733,32.733,0,0,0-3.327.475,147.084,147.084,0,0,0-16.978,4.038h-.712v14.37C27.912,95.438,38,93.06,39.548,93.06a23.858,23.858,0,0,1,5.818,0c2.255.476,8.191,1.663,13.775,2.733C65.077,97.1,70.658,98.166,72.8,98.523c1.186.118,2.377.118,3.563.118,2.847-.237,5.818-1.9,8.551-3.325.948-.473,1.779-.95,2.61-1.425l25.294-13.656c2.851-1.78,2.851-3.205,2.614-3.92Z" transform="translate(397.633 720.076)" fill="#124c8a" fill-rule="evenodd"/>
  </g>
</svg>
