<svg xmlns="http://www.w3.org/2000/svg" width="87.041" height="76.462" viewBox="0 0 87.041 76.462">
  <g id="Group_36671" data-name="Group 36671" transform="translate(-180 -742.244)">
    <path id="Path_46934" data-name="Path 46934" d="M764.257,561.337H701.871c0-25.128,9.376-18.753,28.008-29.454v-4.329c-3.365-2.281-4.086-6.489-5.169-10.817h0c-.6,0-.965-.84-.965-1.68v-.366a9.222,9.222,0,0,1-.84-2.28c-.36-1.2-1.562-3.969-.48-5.17a.993.993,0,0,1,1.561.121c-1.44-7.094-3.242-16.47,6.614-19.233,0-6.133,23.08-3.367,25.847,6.369,1.2,3.728-.361,12.744-.361,12.744.361-.719.722-.84,1.322-.48,1.2.961-.12,4.569-.482,5.651v.118l-1.2.241v1.566a8.2,8.2,0,0,1-.365,2.281c-.116.12-.116.12-.239.12-.241.722-.357,1.562-.6,2.286a10.29,10.29,0,0,1-7.45,5.649l-1.324.36-.12,1.441a42.136,42.136,0,0,0,2.406,14.065,40.584,40.584,0,0,0,16.226,20.8Z" transform="translate(-521.871 257.369)" fill="#124c8a"/>
    <path id="Path_46935" data-name="Path 46935" d="M778.166,522.348a10.888,10.888,0,0,1-5.649-3.487,11.2,11.2,0,0,1-2.406-6.369h0c-.36-.126-1.681-.365-3.362-.724a28.575,28.575,0,0,0-11.662,0c-1.807.36-3.247.724-3.368.724a11.186,11.186,0,0,1-2.406,6.369,10.77,10.77,0,0,1-5.769,3.487,33.587,33.587,0,0,0,.484,5.168v.121a45.678,45.678,0,0,0,1.441,5.409,30.394,30.394,0,0,0,15.387,17.671,31.291,31.291,0,0,0,10.579-8.656,34.083,34.083,0,0,0,4.929-9.015,30.2,30.2,0,0,0,1.321-5.53,21.983,21.983,0,0,0,.48-5.168Z" transform="translate(-511.135 264.143)" fill="#88b14b"/>
    <path id="Path_46936" data-name="Path 46936" d="M756.871,538.551h0v-7.215h-7.209v-4.927h7.209v-7.214h4.814v7.214h7.328v4.927h-7.328v7.215Z" transform="translate(-509.559 266.211)" fill="#fff"/>
  </g>
</svg>
