<svg xmlns="http://www.w3.org/2000/svg" width="47" height="47" viewBox="0 0 47 47">
  <g id="Group_36671" data-name="Group 36671" transform="translate(-12 -10)">
    <circle id="Ellipse_876" data-name="Ellipse 876" cx="23.5" cy="23.5" r="23.5" transform="translate(12 10)" fill="#124c8a"/>
    <path id="sign-in" d="M16.8,14H3.611a.611.611,0,1,1,0-1.222H16.8L12.957,8.932a.611.611,0,1,1,.864-.864l4.889,4.889a.611.611,0,0,1,0,.864L13.821,18.71a.611.611,0,1,1-.864-.864L16.8,14ZM12.167,4.222a.611.611,0,0,1,0-1.222h9.778A3.056,3.056,0,0,1,25,6.056V21.944A3.056,3.056,0,0,1,21.944,25H12.167a.611.611,0,0,1,0-1.222h9.778a1.833,1.833,0,0,0,1.833-1.833V6.056a1.833,1.833,0,0,0-1.833-1.833Z" transform="translate(20 20)" fill="#fff"/>
  </g>
</svg>
