<svg xmlns="http://www.w3.org/2000/svg" width="58.419" height="77.924" viewBox="0 0 58.419 77.924">
  <g id="Group_35569" data-name="Group 35569" transform="translate(-644.581 -504.373)">
    <path id="Path_46804" data-name="Path 46804" d="M152.853,202.4h0l-.839.105a3.488,3.488,0,0,1-2.622-.944,3.943,3.943,0,0,1-1.156-2.832V178.806a11.1,11.1,0,0,1,5.247-7.446Z" transform="translate(496.346 366.784)" fill="#124c8a" fill-rule="evenodd"/>
    <path id="Path_46805" data-name="Path 46805" d="M177.97,168.587h10.905c.629,0,15.417,0,16.571,11.957v29.263a4.418,4.418,0,0,1-4.51,4.195,4.352,4.352,0,0,1-4.51-4.195V177.819h-2.1v37.963H160.663V204.142h16.361a5.718,5.718,0,0,0,5.875-5.453,5.791,5.791,0,0,0-5.875-5.454h-3.986l-7.132-24.647H177.97Z" transform="translate(497.554 366.514)" fill="#124c8a" fill-rule="evenodd"/>
    <path id="Path_46806" data-name="Path 46806" d="M154.067,202.742h0l.733-31.988a38.925,38.925,0,0,1,9.862-1.783l7.342,25.9c1.467,3.042,2.619,6.923,1.99,7.761-.105.105-.105.105-.315.105Z" transform="translate(496.913 366.552)" fill="#88b14b" fill-rule="evenodd"/>
    <path id="Path_46807" data-name="Path 46807" d="M172.515,193.057h3.356a3.684,3.684,0,1,1,0,7.343H174.09c.524-1.993-.733-5.452-1.575-7.343Z" transform="translate(498.707 368.894)" fill="#fff" fill-rule="evenodd"/>
    <path id="Path_46808" data-name="Path 46808" d="M177.719,168.479h-.946a14.087,14.087,0,0,1-13.528-14.053,14,14,0,0,1,28,0,14.091,14.091,0,0,1-13.529,14.053Z" transform="translate(497.805 363.791)" fill="#124c8a" fill-rule="evenodd"/>
  </g>
</svg>
