<svg xmlns="http://www.w3.org/2000/svg" width="24.053" height="24.051" viewBox="0 0 24.053 24.051">
  <path id="Icon_ionic-ios-call" data-name="Icon ionic-ios-call" d="M27.849,23.335a20.2,20.2,0,0,0-4.22-2.824c-1.265-.607-1.728-.595-2.624.05-.745.539-1.227,1.039-2.085.852s-2.548-1.465-4.189-3.1-2.918-3.331-3.1-4.189.319-1.34.852-2.085c.645-.9.664-1.359.05-2.624A19.8,19.8,0,0,0,9.709,5.2c-.92-.92-1.127-.72-1.634-.539a9.3,9.3,0,0,0-1.5.8,4.515,4.515,0,0,0-1.8,1.9c-.357.77-.77,2.2,1.334,5.949a33.192,33.192,0,0,0,5.836,7.783h0l.006.006.006.006h0a33.322,33.322,0,0,0,7.783,5.836c3.744,2.1,5.178,1.691,5.949,1.334a4.438,4.438,0,0,0,1.9-1.8,9.3,9.3,0,0,0,.8-1.5C28.569,24.462,28.775,24.256,27.849,23.335Z" transform="translate(-4.49 -4.502)" fill="#124c8a"/>
</svg>
