<svg xmlns="http://www.w3.org/2000/svg" width="89.157" height="69.219" viewBox="0 0 89.157 69.219">
  <g id="Group_36249" data-name="Group 36249" transform="translate(-1406 -749.498)">
    <path id="Path_47374" data-name="Path 47374" d="M115.429,76.316c-.6-1.542-3.206-2.492-5.94-2.254a15.341,15.341,0,0,0-2.255.473C103.672,75.6,85.978,81.66,85.859,81.9h-.475l.239.359c2.016,1.66,3.083,3.441,2.61,4.868-.594,2.136-3.561,3.443-8.314,3.92a65.691,65.691,0,0,1-15.791-1.19h2.259c4.507,0,8.665,0,11.99-.237,5.106-.357,7.483-1.543,7.839-3.444.119-1.307-.593-2.374-2.377-3.2-1.9-.952-5.818-1.545-9.737-2.139-2.609-.476-5.1-.713-6.889-1.188-6.173-1.661-12.466-3.326-19.829-2.731a32.733,32.733,0,0,0-3.327.475,147.084,147.084,0,0,0-16.978,4.038h-.712v14.37C27.912,95.438,38,93.06,39.548,93.06a23.858,23.858,0,0,1,5.818,0c2.255.476,8.191,1.663,13.775,2.733C65.077,97.1,70.658,98.166,72.8,98.523c1.186.118,2.377.118,3.563.118,2.847-.237,5.818-1.9,8.551-3.325.948-.473,1.779-.95,2.61-1.425l25.294-13.656c2.851-1.78,2.851-3.205,2.614-3.92Z" transform="translate(1379.633 720.076)" fill="#124c8a" fill-rule="evenodd"/>
    <g id="Group_35572" data-name="Group 35572" transform="translate(130.586 56.887)">
      <path id="Path_46884" data-name="Path 46884" d="M394.135,516.716h-16.5a3.749,3.749,0,0,0-3.77-3.776V495.475a3.751,3.751,0,0,0,3.77-3.776h16.825v-2.8H370.952v30.621h22.641Z" transform="translate(916.227 204.865)" fill="#88b14b" fill-rule="evenodd"/>
      <path id="Path_46885" data-name="Path 46885" d="M408.229,491.7h16.929a3.666,3.666,0,0,0,3.67,3.776V512.94a3.664,3.664,0,0,0-3.67,3.776H408.229v2.8h23.508V488.895H408.229Z" transform="translate(921.002 204.865)" fill="#88b14b" fill-rule="evenodd"/>
      <path id="Path_46886" data-name="Path 46886" d="M381.561,502.945h0a4.211,4.211,0,0,0,4.207,4.206,4.143,4.143,0,0,0,4.2-4.206,4.207,4.207,0,0,0-4.2-4.2,4.28,4.28,0,0,0-4.207,4.2Z" transform="translate(917.586 206.126)" fill="#88b14b" fill-rule="evenodd"/>
      <path id="Path_46887" data-name="Path 46887" d="M419.521,502.945h0a4.26,4.26,0,0,0-8.519,0,4.26,4.26,0,0,0,8.519,0Z" transform="translate(921.357 206.126)" fill="#88b14b" fill-rule="evenodd"/>
      <path id="Subtraction_2" data-name="Subtraction 2" d="M20826.344,22627.361h-15.418v-31.92h15.418v31.92Zm-10.244-13.158-2.908.324a5.164,5.164,0,0,0,1.613,3.23,4.718,4.718,0,0,0,3.021,1.512v1.941h1.617v-2.045a5.757,5.757,0,0,0,3.346-1.623,5.485,5.485,0,0,0,.318-6.355,10.273,10.273,0,0,0-3.664-1.834v-4.207a2.08,2.08,0,0,1,1.295,1.727l2.8-.324a4.842,4.842,0,0,0-1.295-2.7,5.043,5.043,0,0,0-2.8-1.182v-1.084h-1.617v1.084a4.231,4.231,0,0,0-3.021,1.4,4.465,4.465,0,0,0-1.187,3.021,4.945,4.945,0,0,0,1.08,3.016,5.278,5.278,0,0,0,3.129,1.834v4.641c-.066-.045-.139-.09-.2-.129a3,3,0,0,1-.879-.734,3.838,3.838,0,0,1-.648-1.512Z" transform="translate(-19498.621 -21902.33)" fill="#88b14b" stroke="rgba(0,0,0,0)" stroke-miterlimit="10" stroke-width="1"/>
      <path id="Path_46891" data-name="Path 46891" d="M400.773,507.641h0a2.158,2.158,0,0,0,1.3-.861,2.122,2.122,0,0,0,.1-2.7,3.382,3.382,0,0,0-1.4-.756Z" transform="translate(920.047 206.713)" fill="#88b14b" fill-rule="evenodd"/>
      <path id="Path_46892" data-name="Path 46892" d="M399.5,496.828h0a3.793,3.793,0,0,0-1.077.758,2.151,2.151,0,0,0-.326,1.185,1.818,1.818,0,0,0,.326,1.077,1.977,1.977,0,0,0,1.077.755Z" transform="translate(919.704 205.881)" fill="#88b14b" fill-rule="evenodd"/>
    </g>
  </g>
</svg>
